<?xml version="1.0" standalone="no"?>
<!DOCTYPE svg PUBLIC "-//W3C//DTD SVG 20010904//EN"
 "http://www.w3.org/TR/2001/REC-SVG-20010904/DTD/svg10.dtd">
<svg version="1.0" xmlns="http://www.w3.org/2000/svg"
 width="399.000000pt" height="130.000000pt" viewBox="0 0 399.000000 130.000000"
 preserveAspectRatio="xMidYMid meet">

<g transform="translate(0.000000,130.000000) scale(0.100000,-0.100000)"
fill="#000000" stroke="none">
<path d="M1638 953 c-30 -5 -19 21 -136 -343 -33 -102 -62 -195 -66 -207 -7
-22 -5 -23 48 -23 l55 0 17 60 17 60 97 0 97 0 16 -60 17 -60 55 0 c30 0 55 3
55 8 0 6 -171 555 -174 558 -4 5 -76 10 -98 7z m102 -360 c0 -2 -32 -3 -71 -3
-62 0 -70 2 -65 18 3 9 17 60 32 112 14 52 29 99 32 104 4 7 71 -209 72 -231z"/>
<path d="M1980 670 l0 -290 55 0 55 0 0 290 0 290 -55 0 -55 0 0 -290z"/>
<path d="M2200 910 l0 -50 50 0 50 0 0 50 0 50 -50 0 -50 0 0 -50z"/>
<path d="M2200 585 l0 -205 50 0 50 0 0 205 0 205 -50 0 -50 0 0 -205z"/>
<path d="M2476 768 c-62 -37 -81 -84 -81 -203 0 -109 10 -138 61 -171 36 -24
109 -21 146 6 23 17 29 18 34 6 7 -19 54 -35 86 -29 24 5 25 6 12 31 -10 20
-14 71 -14 194 0 123 -3 169 -12 175 -7 4 -53 9 -103 11 -79 3 -95 0 -129 -20z
m144 -165 c0 -118 -11 -143 -59 -143 -52 0 -71 33 -71 125 0 60 3 69 29 96 22
21 39 29 65 29 l36 0 0 -107z"/>
<path d="M2868 778 l-38 -10 0 -194 0 -194 55 0 55 0 0 159 c0 136 2 160 16
165 27 10 69 7 90 -8 17 -13 19 -30 22 -165 l3 -151 50 0 49 0 0 168 c0 187
-5 202 -66 228 -38 16 -179 17 -236 2z"/>
<path d="M3694 765 c-57 -34 -84 -98 -84 -197 0 -85 24 -147 65 -174 37 -24
110 -22 147 6 23 17 29 18 34 6 8 -20 61 -37 90 -30 21 5 23 9 12 22 -9 10
-15 70 -18 196 l-5 180 -25 7 c-14 4 -59 7 -100 8 -63 1 -82 -3 -116 -24z
m146 -162 c0 -118 -11 -143 -59 -143 -52 0 -71 33 -71 125 0 60 3 69 29 96 22
21 39 29 65 29 l36 0 0 -107z"/>
<path d="M3260 745 l0 -35 75 0 c41 0 75 -2 75 -5 0 -3 -38 -73 -85 -156 -47
-83 -85 -155 -85 -160 0 -5 72 -9 160 -9 l160 0 0 40 0 39 -85 3 -85 3 81 144
c45 80 83 151 86 158 4 10 -26 13 -146 13 l-151 0 0 -35z"/>
<path d="M132 278 c-66 -128 -120 -234 -118 -235 1 -1 144 61 318 140 174 78
313 145 310 149 -5 5 -311 146 -378 175 -7 2 -61 -90 -132 -229z"/>
</g>
</svg>
